<svg width="106" height="32" viewBox="0 0 106 32" fill="none" xmlns="http://www.w3.org/2000/svg">
<path d="M32.8574 18.5489C32.4385 24.3591 27.578 28.9594 21.6597 28.9594C15.4673 28.9594 10.4292 23.9243 10.4292 17.7353C10.4292 12.0841 14.6306 7.39733 20.075 6.62514V4.0647C13.225 4.85303 7.88721 10.6814 7.88721 17.7353C7.88721 25.3251 14.0656 31.5 21.6597 31.5C28.9803 31.5 34.9831 25.7612 35.4061 18.5489H32.8574Z" fill="#31BBAB"/>
<path d="M32.7785 4.06478V9.63185C30.4488 6.44748 26.787 4.29563 22.6172 4.00781V16.0084H25.1592V7.07499C29.1121 8.374 32.1033 11.8084 32.7555 16.0084H35.3205V4.06478H32.7785Z" fill="white"/>
<path d="M46.1447 16.0052H43.3498C40.6198 16.0052 38.3989 13.7854 38.3989 11.0571V4.06079H40.9409V11.0571C40.9409 12.3846 42.0214 13.4646 43.3498 13.4646H46.1447C47.4731 13.4646 48.5536 12.3846 48.5536 11.0571V4.06079H51.0956V11.0571C51.0956 13.7854 48.8747 16.0052 46.1447 16.0052Z" fill="white"/>
<path d="M65.2408 16.0052H58.0253C55.7039 16.0052 53.8154 14.1176 53.8154 11.7975V8.2684C53.8154 5.94836 55.7039 4.06079 58.0253 4.06079H66.0578L65.2408 6.60132H58.0253C57.1056 6.60132 56.3574 7.34918 56.3574 8.26839V11.7975C56.3574 12.7167 57.1056 13.4646 58.0253 13.4646H65.2408L65.2408 16.0052Z" fill="white"/>
<path d="M65.2409 8.7627H59.2964V11.3032H65.2409V8.7627Z" fill="white"/>
<path d="M80.2452 16.0051H72.8007C70.4793 16.0051 68.5908 14.1175 68.5908 11.7975V8.28085C68.5908 5.96081 70.4793 4.07324 72.8007 4.07324H80.4086L79.5916 6.61377H72.8007C71.881 6.61377 71.1328 7.36163 71.1328 8.28084V11.7975C71.1328 12.7167 71.881 13.4646 72.8007 13.4646H77.7032V11.3094H73.9004V8.7689H80.2452V16.0051Z" fill="#31BBAB"/>
<path d="M91.4098 16.0052H87.1335C84.8121 16.0052 82.9233 14.1176 82.9233 11.7975V8.2684C82.9233 5.94836 84.8121 4.06079 87.1335 4.06079H91.4098C93.7312 4.06079 95.62 5.94836 95.62 8.2684V11.7975C95.62 14.1176 93.7312 16.0052 91.4098 16.0052ZM87.1335 6.60133C86.2138 6.60133 85.4653 7.34919 85.4653 8.2684V11.7975C85.4653 12.7168 86.2138 13.4646 87.1335 13.4646H91.4098C92.3296 13.4646 93.078 12.7168 93.078 11.7975V8.2684C93.078 7.34919 92.3296 6.60133 91.4098 6.60133H87.1335Z" fill="#31BBAB"/>
<path d="M98.113 1.80996C98.113 2.01504 98.0772 2.19897 98.0058 2.36182C97.9342 2.52467 97.8385 2.66218 97.7185 2.77434C97.5985 2.88653 97.4593 2.97219 97.301 3.03127C97.1427 3.09038 96.9767 3.11995 96.8031 3.11995C96.6294 3.11995 96.4635 3.09038 96.3052 3.03127C96.1468 2.97219 96.0077 2.88653 95.8877 2.77434C95.7676 2.66218 95.6719 2.52468 95.6004 2.36182C95.5289 2.19897 95.4932 2.01504 95.4932 1.80996C95.4932 1.60494 95.5289 1.42095 95.6004 1.25813C95.6719 1.09528 95.7676 0.95777 95.8877 0.84558C96.0077 0.73342 96.1468 0.64779 96.3052 0.58865C96.4635 0.52957 96.6294 0.5 96.8031 0.5C96.9767 0.5 97.1427 0.52957 97.301 0.58865C97.4593 0.64779 97.5985 0.73342 97.7185 0.84558C97.8385 0.95777 97.9342 1.09527 98.0058 1.25813C98.0772 1.42095 98.113 1.60494 98.113 1.80996ZM97.8334 1.80996C97.8334 1.65075 97.8078 1.50544 97.7568 1.37393C97.7057 1.24245 97.6349 1.12966 97.5443 1.03556C97.4536 0.94149 97.3451 0.86912 97.2187 0.81845C97.0923 0.76778 96.9537 0.74246 96.8031 0.74246C96.6524 0.74246 96.5139 0.76778 96.3875 0.81845C96.2611 0.86912 96.1526 0.94149 96.062 1.03556C95.9713 1.12966 95.9004 1.24245 95.8494 1.37393C95.7983 1.50544 95.7728 1.65075 95.7728 1.80996C95.7728 1.9692 95.7983 2.11457 95.8494 2.24602C95.9004 2.37753 95.9713 2.49029 96.062 2.58436C96.1526 2.67846 96.2611 2.75083 96.3875 2.8015C96.5139 2.85217 96.6524 2.87749 96.8031 2.87749C96.9537 2.87749 97.0923 2.85217 97.2187 2.8015C97.3451 2.75083 97.4536 2.67846 97.5443 2.58436C97.6349 2.49029 97.7057 2.37753 97.7568 2.24602C97.8079 2.11457 97.8334 1.9692 97.8334 1.80996ZM97.1823 2.5301C97.1235 2.42153 97.0578 2.31839 96.985 2.2207C96.9123 2.12298 96.8491 2.04519 96.7954 1.98728H96.5388V2.5301H96.2669V1.12605C96.3358 1.11155 96.4086 1.1007 96.4852 1.09347C96.5618 1.08624 96.632 1.08262 96.6959 1.08262C96.9155 1.08262 97.0827 1.12123 97.1976 1.19842C97.3125 1.27564 97.37 1.39262 97.37 1.54942C97.37 1.6387 97.3451 1.71652 97.2953 1.78284C97.2455 1.84921 97.1746 1.90045 97.0827 1.93662C97.1082 1.96559 97.1376 2.00176 97.1708 2.04519C97.204 2.08862 97.2384 2.13691 97.2742 2.18993C97.31 2.24304 97.3457 2.2985 97.3815 2.3564C97.4172 2.4143 97.4491 2.4722 97.4772 2.53011L97.1823 2.5301ZM96.5388 1.77741H96.6844C96.7993 1.77741 96.895 1.76237 96.9716 1.73217C97.0482 1.70203 97.0865 1.63991 97.0865 1.54581C97.0865 1.45659 97.0501 1.39447 96.9774 1.35945C96.9046 1.32452 96.8171 1.307 96.715 1.307C96.6869 1.307 96.6575 1.3076 96.6269 1.30881C96.5963 1.31005 96.5669 1.31185 96.5388 1.31424V1.77741Z" fill="white"/>
<path d="M38.48 25.0022V20.5105H41.334V21.204H39.2881V22.3123H41.1095V22.9929H39.2881V24.3087H41.4879V25.0022L38.48 25.0022Z" fill="white"/>
<path d="M45.3892 24.2957V25.0022H42.5801V20.5105H43.3882V24.2957H45.3892Z" fill="white"/>
<path d="M46.5566 25.0022V20.5105H49.4106V21.204H47.3648V22.3123H49.1862V22.9929H47.3648V24.3087H49.5645V25.0022L46.5566 25.0022Z" fill="white"/>
<path d="M52.7837 25.0994C52.4502 25.0994 52.1509 25.0475 51.8858 24.9438C51.6207 24.8401 51.3962 24.6878 51.2124 24.4869C51.0285 24.286 50.8874 24.0408 50.7891 23.7512C50.6907 23.4618 50.6416 23.129 50.6416 22.7531C50.6416 22.3771 50.6983 22.0444 50.8116 21.7549C50.9248 21.4655 51.0798 21.2202 51.2766 21.0193C51.4732 20.8183 51.7041 20.666 51.9692 20.5623C52.2343 20.4586 52.5185 20.4067 52.8222 20.4067C53.006 20.4067 53.1728 20.4208 53.3224 20.4489C53.472 20.477 53.6024 20.5084 53.7137 20.5429C53.8248 20.5775 53.9167 20.6142 53.9894 20.653C54.0621 20.6919 54.1134 20.7201 54.1434 20.7373L53.9061 21.4049C53.8035 21.3401 53.6569 21.2785 53.4668 21.2202C53.2765 21.1619 53.0702 21.1327 52.8479 21.1327C52.6554 21.1327 52.4759 21.1662 52.3092 21.2331C52.1424 21.3002 51.9981 21.4006 51.8762 21.5346C51.7544 21.6686 51.6592 21.837 51.5908 22.0401C51.5224 22.2433 51.4882 22.4787 51.4882 22.7466C51.4882 22.9843 51.5149 23.2025 51.5684 23.4012C51.6218 23.6 51.7041 23.7718 51.8153 23.9165C51.9264 24.0613 52.0675 24.1737 52.2386 24.2535C52.4096 24.3335 52.6148 24.3735 52.8543 24.3735C53.1407 24.3735 53.3738 24.3443 53.5534 24.286C53.7329 24.2276 53.8718 24.1725 53.9702 24.1206L54.1883 24.7883C54.137 24.8229 54.0674 24.8575 53.9799 24.8919C53.8921 24.9266 53.7885 24.9601 53.6688 24.9924C53.5491 25.0248 53.4143 25.0508 53.2647 25.0702C53.115 25.0896 52.9547 25.0994 52.7837 25.0994Z" fill="white"/>
<path d="M58.8508 20.5105V21.217H57.4848V25.0022H56.6703V21.217H55.3042V20.5105H58.8508Z" fill="white"/>
<path d="M61.2494 20.4651C61.8907 20.4651 62.3814 20.584 62.7213 20.8216C63.0612 21.0593 63.2311 21.4223 63.2311 21.9105C63.2311 22.5197 62.9339 22.9324 62.3397 23.1484C62.4208 23.2479 62.5128 23.3688 62.6155 23.5114C62.7181 23.654 62.8228 23.8086 62.9297 23.9748C63.0365 24.1412 63.1391 24.3119 63.2376 24.4869C63.3359 24.6619 63.4235 24.8336 63.5005 25.0022H62.5962C62.515 24.8466 62.4273 24.6901 62.3333 24.5323C62.2392 24.3746 62.1441 24.2212 62.0479 24.0721C61.9517 23.923 61.8564 23.7826 61.7625 23.6508C61.6684 23.519 61.5807 23.4013 61.4996 23.2975C61.4396 23.3019 61.3883 23.3041 61.3456 23.3041H60.8325V25.0022H60.0244V20.5753C60.2211 20.5322 60.4306 20.503 60.653 20.4878C60.8752 20.4727 61.074 20.4651 61.2494 20.4651ZM61.3071 21.1716C61.136 21.1716 60.9778 21.1781 60.8325 21.1911V22.6429H61.1853C61.3818 22.6429 61.555 22.6322 61.7048 22.6105C61.8544 22.5889 61.9794 22.55 62.0799 22.4939C62.1804 22.4377 62.2563 22.362 62.3076 22.267C62.3589 22.172 62.3846 22.051 62.3846 21.904C62.3846 21.7658 62.3589 21.6491 62.3076 21.554C62.2563 21.459 62.1825 21.3834 62.0863 21.3272C61.9901 21.2711 61.8757 21.2311 61.7433 21.2072C61.6106 21.1835 61.4653 21.1716 61.3071 21.1716Z" fill="white"/>
<path d="M64.5781 20.5105H65.3862V25.0022H64.5781V20.5105Z" fill="white"/>
<path d="M68.7193 25.0994C68.3858 25.0994 68.0864 25.0475 67.8213 24.9438C67.5562 24.8401 67.3317 24.6878 67.1479 24.4869C66.9641 24.286 66.823 24.0408 66.7247 23.7512C66.6263 23.4618 66.5771 23.129 66.5771 22.7531C66.5771 22.3771 66.6338 22.0444 66.7471 21.7549C66.8603 21.4655 67.0154 21.2202 67.2121 21.0193C67.4087 20.8183 67.6396 20.666 67.9048 20.5623C68.1698 20.4586 68.4541 20.4067 68.7577 20.4067C68.9415 20.4067 69.1083 20.4208 69.258 20.4489C69.4077 20.477 69.538 20.5084 69.6492 20.5429C69.7604 20.5775 69.8523 20.6142 69.925 20.653C69.9976 20.6919 70.0489 20.7201 70.0789 20.7373L69.8417 21.4049C69.7391 21.3401 69.5925 21.2785 69.4023 21.2202C69.212 21.1619 69.0057 21.1327 68.7834 21.1327C68.591 21.1327 68.4114 21.1662 68.2447 21.2331C68.078 21.3002 67.9336 21.4006 67.8118 21.5346C67.6899 21.6686 67.5947 21.837 67.5264 22.0401C67.4579 22.2433 67.4237 22.4787 67.4237 22.7466C67.4237 22.9843 67.4504 23.2025 67.504 23.4012C67.5573 23.6 67.6397 23.7718 67.7509 23.9165C67.862 24.0613 68.0031 24.1737 68.1742 24.2535C68.3451 24.3335 68.5503 24.3735 68.7898 24.3735C69.0762 24.3735 69.3093 24.3443 69.4888 24.286C69.6685 24.2276 69.8074 24.1725 69.9057 24.1206L70.1238 24.7883C70.0725 24.8229 70.003 24.8575 69.9154 24.8919C69.8277 24.9266 69.7239 24.9601 69.6043 24.9924C69.4846 25.0248 69.3499 25.0508 69.2003 25.0702C69.0505 25.0896 68.8902 25.0994 68.7193 25.0994Z" fill="white"/>
<path d="M75.7993 25.0022C75.7393 24.8251 75.6772 24.6501 75.6128 24.4772C75.5484 24.3044 75.4863 24.1272 75.4264 23.9457H73.5491C73.4891 24.1272 73.4279 24.3054 73.3658 24.4804C73.3037 24.6555 73.2425 24.8294 73.1826 25.0022H72.3423C72.5088 24.5226 72.667 24.0797 72.8165 23.6735C72.966 23.2674 73.1123 22.8827 73.2553 22.5198C73.3985 22.1568 73.5405 21.8112 73.6815 21.4827C73.8225 21.1544 73.9677 20.8303 74.1173 20.5105H74.8887C75.0383 20.8303 75.1837 21.1544 75.3248 21.4827C75.4659 21.8112 75.608 22.1568 75.7513 22.5198C75.8946 22.8827 76.0421 23.2674 76.194 23.6735C76.3456 24.0797 76.505 24.5226 76.6717 25.0022H75.7993ZM74.4878 21.379C74.3893 21.6081 74.2771 21.8868 74.151 22.2151C74.0249 22.5435 73.8934 22.9001 73.7566 23.2846H75.2189C75.082 22.9001 74.9495 22.5414 74.8213 22.2087C74.693 21.8759 74.5818 21.5994 74.4878 21.379Z" fill="white"/>
<path d="M79.8398 25.0994C79.5064 25.0994 79.207 25.0475 78.9419 24.9438C78.6768 24.8401 78.4523 24.6878 78.2685 24.4869C78.0847 24.286 77.9436 24.0408 77.8453 23.7512C77.7468 23.4618 77.6978 23.129 77.6978 22.7531C77.6978 22.3771 77.7543 22.0444 77.8677 21.7549C77.981 21.4655 78.136 21.2202 78.3327 21.0193C78.5293 20.8183 78.7602 20.666 79.0254 20.5623C79.2904 20.4586 79.5747 20.4067 79.8783 20.4067C80.0621 20.4067 80.2288 20.4208 80.3786 20.4489C80.5282 20.477 80.6586 20.5084 80.7698 20.5429C80.8809 20.5775 80.9728 20.6142 81.0456 20.653C81.1182 20.6919 81.1695 20.7201 81.1995 20.7373L80.9622 21.4049C80.8596 21.3401 80.7131 21.2785 80.5229 21.2202C80.3326 21.1619 80.1262 21.1327 79.904 21.1327C79.7116 21.1327 79.532 21.1662 79.3653 21.2331C79.1985 21.3002 79.0542 21.4006 78.9324 21.5346C78.8105 21.6686 78.7153 21.837 78.6469 22.0401C78.5785 22.2433 78.5443 22.4787 78.5443 22.7466C78.5443 22.9843 78.571 23.2025 78.6245 23.4012C78.678 23.6 78.7602 23.7718 78.8714 23.9165C78.9826 24.0613 79.1237 24.1737 79.2947 24.2535C79.4657 24.3335 79.6709 24.3735 79.9104 24.3735C80.1968 24.3735 80.4299 24.3443 80.6095 24.286C80.789 24.2276 80.9279 24.1725 81.0263 24.1206L81.2444 24.7883C81.1931 24.8229 81.1235 24.8575 81.0359 24.8919C80.9483 24.9266 80.8445 24.9601 80.7249 24.9924C80.6051 25.0248 80.4705 25.0508 80.3209 25.0702C80.1711 25.0896 80.0108 25.0994 79.8398 25.0994Z" fill="white"/>
<path d="M84.919 25.054C84.6838 25.054 84.4466 25.0464 84.2072 25.0313C83.9676 25.0162 83.7583 24.985 83.5786 24.9373V20.5753C83.6727 20.5581 83.7731 20.5419 83.88 20.5267C83.9869 20.5116 84.096 20.4998 84.2072 20.491C84.3183 20.4824 84.4284 20.4759 84.5375 20.4716C84.6465 20.4673 84.7501 20.4651 84.8485 20.4651C85.1178 20.4651 85.368 20.4857 85.5989 20.5267C85.8298 20.5678 86.0296 20.6359 86.1986 20.7308C86.3674 20.826 86.4989 20.9512 86.593 21.1068C86.687 21.2623 86.7341 21.4547 86.7341 21.6836C86.7341 21.8954 86.6838 22.0769 86.5833 22.2281C86.4829 22.3794 86.3429 22.5003 86.1632 22.5911C86.4326 22.6818 86.6314 22.8158 86.7597 22.9929C86.888 23.1701 86.9521 23.3948 86.9521 23.667C86.9521 24.1294 86.7854 24.4761 86.4519 24.7073C86.1184 24.9385 85.6074 25.054 84.919 25.054ZM84.3739 22.3383H84.9448C85.2526 22.3383 85.4941 22.294 85.6694 22.2054C85.8447 22.1169 85.9324 21.9581 85.9324 21.729C85.9324 21.513 85.8415 21.3595 85.6598 21.2688C85.478 21.1781 85.2419 21.1327 84.9511 21.1327C84.827 21.1327 84.717 21.1349 84.6208 21.1392C84.5246 21.1435 84.4423 21.15 84.3739 21.1586V22.3383ZM84.3739 22.98V24.3475C84.4637 24.3563 84.5599 24.3627 84.6625 24.367C84.7651 24.3713 84.8591 24.3735 84.9448 24.3735C85.1114 24.3735 85.2664 24.3627 85.4097 24.3411C85.5529 24.3195 85.6768 24.2817 85.7817 24.2277C85.8864 24.1737 85.9698 24.1012 86.0318 24.0105C86.0937 23.9197 86.1248 23.8031 86.1248 23.6605C86.1248 23.4056 86.0328 23.2285 85.849 23.129C85.6652 23.0297 85.4107 22.98 85.0858 22.98H84.3739Z" fill="white"/>
<path d="M89.7815 25.0994C89.4779 25.0994 89.2171 25.055 88.9991 24.9665C88.7811 24.878 88.6003 24.7538 88.4571 24.5938C88.3138 24.4341 88.208 24.2461 88.1397 24.03C88.0712 23.814 88.0371 23.5762 88.0371 23.317V20.5105H88.8515V23.2392C88.8515 23.4424 88.874 23.6163 88.9189 23.761C88.9638 23.9058 89.028 24.0235 89.1113 24.1143C89.1947 24.205 89.293 24.272 89.4064 24.3152C89.5196 24.3584 89.6468 24.38 89.7879 24.38C89.929 24.38 90.0573 24.3584 90.1728 24.3152C90.2882 24.272 90.3876 24.205 90.471 24.1143C90.5544 24.0235 90.6185 23.9058 90.6633 23.761C90.7082 23.6163 90.7307 23.4424 90.7307 23.2392V20.5105H91.5452V23.317C91.5452 23.5762 91.51 23.814 91.4393 24.03C91.3689 24.2461 91.2619 24.4341 91.1187 24.5938C90.9754 24.7538 90.7926 24.878 90.5704 24.9665C90.348 25.055 90.085 25.0994 89.7815 25.0994Z" fill="white"/>
<path d="M93.9457 24.3929C94.2364 24.3929 94.4481 24.3432 94.5806 24.2438C94.7131 24.1445 94.7795 24.004 94.7795 23.8225C94.7795 23.7145 94.757 23.6216 94.7121 23.5438C94.6672 23.4661 94.6031 23.3958 94.5198 23.3332C94.4363 23.2706 94.3347 23.2122 94.2151 23.1581C94.0953 23.1041 93.9585 23.0512 93.8046 22.9994C93.6506 22.9432 93.5021 22.8817 93.3589 22.8146C93.2156 22.7477 93.0895 22.6646 92.9805 22.5651C92.8714 22.4657 92.7838 22.347 92.7175 22.2087C92.6512 22.0704 92.6181 21.904 92.6181 21.7095C92.6181 21.3034 92.757 20.9848 93.035 20.7535C93.3129 20.5224 93.6912 20.4067 94.1701 20.4067C94.4481 20.4067 94.695 20.4381 94.9109 20.5007C95.1268 20.5634 95.2967 20.6315 95.4208 20.7049L95.1707 21.366C95.0253 21.284 94.866 21.2213 94.6928 21.178C94.5198 21.1349 94.3412 21.1132 94.1574 21.1132C93.9393 21.1132 93.7693 21.1586 93.6475 21.2494C93.5257 21.3401 93.4647 21.4676 93.4647 21.6318C93.4647 21.7312 93.4849 21.8165 93.5257 21.8878C93.5662 21.9591 93.624 22.0229 93.6988 22.079C93.7736 22.1352 93.8612 22.1871 93.9617 22.2345C94.0622 22.2822 94.1723 22.3276 94.292 22.3707C94.5015 22.4485 94.6885 22.5274 94.8532 22.6072C95.0178 22.6872 95.1567 22.7823 95.2701 22.8924C95.3833 23.0026 95.4699 23.1323 95.5298 23.2813C95.5897 23.4304 95.6196 23.6108 95.6196 23.8225C95.6196 24.2288 95.4774 24.5431 95.1931 24.7656C94.9088 24.9882 94.4929 25.0994 93.9457 25.0994C93.7618 25.0994 93.594 25.0874 93.4423 25.0637C93.2904 25.0399 93.1558 25.0108 93.0382 24.9762C92.9206 24.9417 92.819 24.9061 92.7336 24.8693C92.6479 24.8326 92.5796 24.7991 92.5283 24.7688L92.7656 24.1012C92.8811 24.166 93.0371 24.2308 93.2338 24.2957C93.4304 24.3605 93.6677 24.3929 93.9457 24.3929Z" fill="white"/>
</svg>
